<svg xmlns="http://www.w3.org/2000/svg" xmlns:xlink="http://www.w3.org/1999/xlink" viewBox="0 0 1037.3401 178.0874"><defs><style>.cls-1{isolation:isolate;}.cls-2{fill:url(#radial-gradient);}.cls-3{mix-blend-mode:multiply;fill:url(#radial-gradient-3);}.cls-4{fill:#e30015;}.cls-5{fill:#ffe595;}.cls-6{fill:#0068b4;}</style><radialGradient id="radial-gradient" cx="129.3814" cy="88.3846" r="90.4938" gradientUnits="userSpaceOnUse"><stop offset="0" stop-color="#fc0"/><stop offset="1" stop-color="#ffe595"/></radialGradient><radialGradient id="radial-gradient-3" cx="129.3814" cy="88.3846" r="90.4938" gradientUnits="userSpaceOnUse"><stop offset="0" stop-color="#f3997d"/><stop offset="1" stop-color="#fce6dc"/></radialGradient></defs><title>Element 1</title><g class="cls-1"><g id="Ebene_2" data-name="Ebene 2"><g id="Ebene_7" data-name="Ebene 7"><path class="cls-2" d="M233.1328,47.6763C222.5771,17.021,170.6357,7.1084,117.1172,25.5356S14.5439,109.9194,25.1,140.5757,103.9229,161.88,157.44,143.4526,243.6875,78.332,233.1328,47.6763Z"/><path class="cls-2" d="M233.1328,47.6763C222.5771,17.021,170.6357,7.1084,117.1172,25.5356S14.5439,109.9194,25.1,140.5757,103.9229,161.88,157.44,143.4526,243.6875,78.332,233.1328,47.6763Z"/><path class="cls-3" d="M233.1328,47.6763C222.5771,17.021,170.6357,7.1084,117.1172,25.5356S14.5439,109.9194,25.1,140.5757,103.9229,161.88,157.44,143.4526,243.6875,78.332,233.1328,47.6763Z"/><path class="cls-4" d="M178.296,12.3768A95.5954,95.5954,0,0,1,197.21,14.3331q.6687.14,1.3284.2892c.4309.098.864.1936,1.2885.2982a59.5,59.5,0,0,1,15.4484,6.0415,46.4059,46.4059,0,0,1,4.75,3.1209,41.7393,41.7393,0,0,1,4.9258,4.3c.1364.1406.2622.2872.396.4293a36.8007,36.8007,0,0,1,9.5579,19.1283,45.7689,45.7689,0,0,1,.6878,8.2553c-.0017.4111.0028.8191-.0089,1.235-.0511,1.8129-.2068,3.6507-.4438,5.5068-1.3532,10.5984-5.7185,21.8763-13.0415,33.6133l-.7285,1.1679.1264-.03,11.1157-2.6216-.014.0105-52.8161,39.5678-.1679.1258,2.4573-5.8611.39-.9309.4214-1.005L199.0811,88.34l.0641.1231,4.35,8.3467.073-.1213.4484-.744c6.5723-10.9062,10.042-21.3384,10.3116-31.0073.5644-20.124-13.4571-33.9253-37.544-37.0015l.0008-.0079-.5624-.075-.5623-.0748-.7873-.105.0031-.0291c-15.4763-1.5584-34.184,1.2431-54.0333,8.43C69.5,54.6636,26.7847,97.0151,24.253,131.3774l-1.5116-2.7388a36.9726,36.9726,0,0,1-.3717-6.1869c.5078-22.1807,19.1362-49.4356,48.6147-71.1289a189.951,189.951,0,0,1,38.1231-21.7906l-9.5635,10.04.6694.8955L148.76,15.562A142.8869,142.8869,0,0,1,177.17,12.35M161.9813,139.6682q3.5992-2.3462,7.1379-4.8376L144.2354,144.854l-.626-.9141,14.2822-15.2461c-22.783,15.735-48.1035,25.8937-70.7514,29.5328,1.6882.1339,3.4062.2356,5.1845.271C114.0674,158.9179,139.0133,151.7039,161.9813,139.6682ZM23.0485,134.7747a33.4063,33.4063,0,0,1-1.397-5.764c-.0765-.5047-.14-1.0147-.1958-1.5285-.05-.4662-.0965-.934-.1294-1.4076-.0831-1.1948-.1188-2.41-.09-3.6493C21.752,99.9019,40.5567,72.3066,70.3125,50.41q6.4311-4.7328,13.2092-8.8849a189.3709,189.3709,0,0,1,27.6419-14.079l.0481.0705.5769.8455-9.1157,9.57,41.7143-21.4007,1.9913-1.0217,1.9967-1.0243L163.2178,6.87,109.92,6.5366l3.7929,6.1973-.6264.248A232.8531,232.8531,0,0,0,60.9873,41.9287C24.7017,68.6313,1.772,102.189,1.147,129.5063c-.3,13.1221,4.6538,24.1944,14.3272,32.02a54.3535,54.3535,0,0,0,21.0681,10.0367l-24.573-39.6607Zm18.6908,31.76-.6032,6.0372a96.86,96.86,0,0,0,17.8742,1.577c.3813,0,.77-.0114,1.1532-.0151A58.85,58.85,0,0,1,41.7393,166.5347ZM251.4463,25.9438c-7.75-15.06-25.2715-23.7963-49.4638-24.7133l15.1611,9.8955-14.748,3.2316-.1409.0309c9.6691,2.7009,17.6227,7.1354,23.51,13.2053.1787.1842.3445.3757.5189.5624.5175.49,1.0111.998,1.4913,1.5159a31.3065,31.3065,0,0,1,4.9224,6.968,32.9654,32.9654,0,0,1,3.2542,10.1274c.0983.6392.176,1.286.2406,1.9375a48.2835,48.2835,0,0,1,.5247,8.7584c-.3388,12.0254-4.6894,24.979-12.9375,38.5224l.1269-.03L234.9971,93.34l.0034.0072.245.5246.0011.0025.22.4716L177.124,138.0544l-.1679.1258,3.4015-8.1133a195.7257,195.7257,0,0,1-17.7708,10.557q-2.5677,1.3479-5.1656,2.6126-2.5132,1.225-5.0479,2.3714c-20.2138,9.1326-41.333,14.4073-60.071,14.0225a83.2947,83.2947,0,0,1-9.7764-.7523q-.9728-.1349-1.9243-.2923-1.0486-.1746-2.07-.3782a49.81,49.81,0,0,1-17.0193-6.5l-1.1284-.7138L71.05,148.3931l-46.16-11.9686-.7193-.1865-.6585-.1708L14.4234,133.71l23.6878,38.2315.4331.6991.3794.6122.8654,1.3967.1179-1.18.0534-.5346.0573-.5738.7812-7.8178.7866.5312c6.4356,4.3388,14.3162,7.3151,23.52,8.9175q1.3193.23,2.6746.4217,1.2035.17,2.436.31c3.1084.3541,6.3437.5741,9.7192.6411.7559.0147,1.5249.0225,2.2871.0225,54.4819.0039,124.4009-37.9355,156.9585-85.4775C255.5752,65.97,260.0459,42.6553,251.4463,25.9438Z"/><path class="cls-5" d="M252.4541,25.4248C244.293,9.564,225.6641.5483,200,.0391L198.0225,0l16.2363,10.5977-14.27,3.1265c-13.4829-3.3166-29.7563-3.3311-47.5816-.0333l13.3885-6.8686-.2548-1.0713L107.8882,5.39l4.1543,6.7871a234.0367,234.0367,0,0,0-51.727,28.8384C23.753,67.9219.6465,101.82.0132,129.481c-.3086,13.4853,4.791,24.872,14.7481,32.9257,6.1325,4.9616,13.8134,8.4343,22.6178,10.5064l3.2059,5.1743.4411-4.4147a98.4192,98.4192,0,0,0,17.9573,1.568c1.9178,0,3.868-.0543,5.84-.1479a98.7785,98.7785,0,0,0,15.0893,1.4048c.7671.0156,1.5284.0234,2.3018.0234,54.814-.0049,125.16-38.16,157.9018-85.9707C256.9981,65.8989,261.38,42.77,252.4541,25.4248ZM82.2222,175.3872c-.7622,0-1.5312-.0078-2.2871-.0225-3.3755-.067-6.6108-.287-9.7192-.6411q-1.2318-.14-2.436-.31-1.3555-.1917-2.6746-.4217c-9.2036-1.6024-17.0842-4.5787-23.52-8.9175l-.7866-.5312-.7812,7.8178-.0573.5738-.0534.5346-.1179,1.18-.8654-1.3967-.3794-.6122-.4331-.6991L14.4234,133.71l9.0895,2.3568.6585.1708.7193.1865,46.16,11.9686-10.6665,2.6006,1.1284.7138a49.81,49.81,0,0,0,17.0193,6.5q1.0216.2034,2.07.3782.9508.1583,1.9243.2923a83.2947,83.2947,0,0,0,9.7764.7523c18.738.3848,39.8572-4.89,60.071-14.0225q2.5352-1.1454,5.0479-2.3714,2.5973-1.266,5.1656-2.6126a195.7257,195.7257,0,0,0,17.7708-10.557l-3.4015,8.1133.1679-.1258,58.3428-43.7082-.22-.4716-.0011-.0025-.245-.5246-.0034-.0072-11.0909,2.6156-.1269.03c8.2481-13.5434,12.5987-26.497,12.9375-38.5224a48.2835,48.2835,0,0,0-.5247-8.7584c-.0646-.6515-.1423-1.2983-.2406-1.9375A32.9654,32.9654,0,0,0,232.6973,36.64a31.3065,31.3065,0,0,0-4.9224-6.968c-.48-.5179-.9738-1.0256-1.4913-1.5159-.1744-.1867-.34-.3782-.5189-.5624-5.8873-6.07-13.8409-10.5044-23.51-13.2053l.1409-.0309,14.748-3.2316L201.9825,1.2305c24.1923.917,41.7138,9.6528,49.4638,24.7133,8.6,16.7115,4.1289,40.0264-12.2656,63.9659C206.6231,137.4517,136.7041,175.3911,82.2222,175.3872Zm-41.0861-2.8153.6032-6.0372a58.85,58.85,0,0,0,18.4242,7.5991c-.3837.0037-.7719.0151-1.1532.0151A96.86,96.86,0,0,1,41.1361,172.5719Zm-25.6619-11.046C5.8008,153.7007.8467,142.6284,1.147,129.5063c.625-27.3173,23.5547-60.875,59.84-87.5776A232.8531,232.8531,0,0,1,113.086,12.9819l.6264-.248L109.92,6.5366l53.2983.3335-14.8426,7.6148-1.9967,1.0243-1.9913,1.0217L102.6729,37.9316l9.1157-9.57-.5769-.8455-.0481-.0705a189.3709,189.3709,0,0,0-27.6419,14.079Q76.76,45.69,70.3125,50.41C40.5567,72.3066,21.752,99.9019,21.2359,122.4253c-.0284,1.24.0073,2.4545.09,3.6493.0329.4736.0791.9414.1294,1.4076.0554.5138.1193,1.0238.1958,1.5285a33.4063,33.4063,0,0,0,1.397,5.764l-11.0792-2.8728,24.573,39.6607A54.3535,54.3535,0,0,1,15.4742,161.5259Zm142.4174-32.8321L143.6094,143.94l.626.9141,24.8838-10.0234q-3.5355,2.4941-7.1379,4.8376c-22.968,12.0357-47.9139,19.25-69.6566,18.8294-1.7783-.0354-3.4963-.1371-5.1845-.271C109.7881,154.5875,135.1086,144.4288,157.8916,128.6938Zm15.6866,4.3213-.5479-.9834-26.84,10.8116,16.4189-17.5264-.75-.8447c-25.2244,18.563-54.1045,30.1165-79.1034,33.2778a52.499,52.499,0,0,1-19.4772-6.2954l10.23-2.4942.0078-1.1L25.23,135.34l.0544-1.9327c.9609-34.2754,44.0015-77.4609,95.9439-96.2671,20.046-7.2585,38.884-10.0133,54.327-8.2919l-.0077.0785.5508.0665c23.7793,2.8584,37.6474,16.2832,37.0966,35.9121-.2567,9.178-3.4733,19.0835-9.56,29.4585l-4.541-8.7129-.0609.145-.0641-.1231-17.8233,42.5119q-4.017,2.7372-8.1877,5.277C173.1645,133.3118,173.3728,133.1663,173.5782,133.0151Zm-148.4471,2.3-.7616-.1974q-.4938-1.343-.864-2.7476ZM178.296,12.3768A95.5954,95.5954,0,0,1,197.21,14.3331q.6687.14,1.3284.2892c.4309.098.864.1936,1.2885.2982a59.5,59.5,0,0,1,15.4484,6.0415,46.4059,46.4059,0,0,1,4.75,3.1209,41.7393,41.7393,0,0,1,4.9258,4.3c.1364.1406.2622.2872.396.4293a36.8007,36.8007,0,0,1,9.5579,19.1283,45.7689,45.7689,0,0,1,.6878,8.2553c-.0017.4111.0028.8191-.0089,1.235-.0511,1.8129-.2068,3.6507-.4438,5.5068-1.3532,10.5984-5.7185,21.8763-13.0415,33.6133l-.7285,1.1679.1264-.03,11.1157-2.6216-.014.0105-52.8161,39.5678-.1679.1258,2.4573-5.8611.39-.9309.4214-1.005L199.0811,88.34l.0641.1231,4.35,8.3467.073-.1213.4484-.744c6.5723-10.9062,10.042-21.3384,10.3116-31.0073.5644-20.124-13.4571-33.9253-37.544-37.0015l.0008-.0079-.5624-.075-.5623-.0748-.7873-.105.0031-.0291c-15.4763-1.5584-34.184,1.2431-54.0333,8.43C69.5,54.6636,26.7847,97.0151,24.253,131.3774l-1.5116-2.7388a36.9726,36.9726,0,0,1-.3717-6.1869c.5078-22.1807,19.1362-49.4356,48.6147-71.1289a189.951,189.951,0,0,1,38.1231-21.7906l-9.5635,10.04.6694.8955L148.76,15.562A142.8869,142.8869,0,0,1,177.17,12.35Z"/><path class="cls-6" d="M78.5474,125.6753c11.8546,0,20.2177-10.3125,20.2177-27.8008V62.001H82.7656v38.0258c0,4.3047-1.6,6.5469-4.2182,6.5469s-4.2178-2.2422-4.2178-6.5469V62.2178A175.7369,175.7369,0,0,0,58.4028,75.3584V97.8745C58.4028,115.3628,66.6935,125.6753,78.5474,125.6753Z"/><path class="cls-6" d="M140.1953,80.1172,145.65,62.001H129.0688l-4.0722,15.7841c-.8731,3.4082-1.9638,5.1123-3.8545,5.2915V62.001H105.1426v62.688h15.9995V98.3218h2.2544c3.7818,0,4.6543,1.7949,4.6543,6.5468v19.82h16V106.0347c0-10.7618-1.3827-16.0523-8.2188-17.7564C137.7969,86.8432,138.959,84.1528,140.1953,80.1172Z"/><path class="cls-6" d="M169.5978,61.0146c-11.8537,0-20.1447,10.3135-20.1447,27.8018V124.689H161.555c.1007-.0738.2038-.1428.3044-.2168l.1926.2168h3.4011V86.6641c0-4.3047,1.5274-6.5469,4.1447-6.5469,2.619,0,4.2909,2.2422,4.2909,6.5469v1.8833h-6.6172v16.4111h6.6172v19.73h8.7236l7.2022-17.1787V88.8164C189.8145,71.3281,181.4512,61.0146,169.5978,61.0146Z"/><path class="cls-6" d="M1019.38,124.4778h5.8068v-15.26c0-8.44,3.2409-12.0863,11.276-12.0863h.8777V91.5276h-1.4854c-5.6043,0-9.0479,1.4179-11.141,5.4016v-4.794H1019.38Zm-5.8744-14.3144-5.8743-.8778c-.9453,6.4145-4.9965,10.1957-10.3982,10.1957-5.6718,0-10.3307-4.8616-10.3307-11.2761,0-6.482,4.5914-11.276,10.3307-11.276a9.4041,9.4041,0,0,1,7.2247,3.241L988.725,108.948l2.4308,4.3888,21.2016-11.7486C1009.1163,94.9711,1003.7822,91.46,997.3,91.46a16.0306,16.0306,0,0,0-11.6136,4.9291,17.1124,17.1124,0,0,0,3.376,26.4682,15.701,15.701,0,0,0,8.17,2.2957c8.2375,0,14.652-5.6042,16.2725-14.99m-44.426,14.3144h5.8068V77.2806h-5.8068Zm-31.87,0h5.8068V109.5557h6.8872c4.4563,0,6.4145,2.0931,6.4145,6.7521v8.17h5.8068V115.565c0-6.0769-2.3633-9.3854-7.765-10.3982,1.418-.7427,3.0385-2.4983,4.794-5.3342l4.7265-7.6974H957.128L953.0092,98.82c-2.1606,3.5786-3.7812,5.0641-7.4273,5.0641h-2.5658V77.2806h-5.8068ZM931.2,97.672V92.1352h-2.9034c-4.5239,0-8.17.4727-11.8837,2.971a15.7349,15.7349,0,0,0-7.09,13.1666c0,9.3854,6.9547,16.205,18.9734,16.205H931.2v-5.4692h-2.4983c-8.3726,0-13.3691-4.4564-13.3691-10.6683s4.929-10.6683,13.3691-10.6683Zm-33.693,26.8058h5.8068V92.1352h-5.8068Zm-.6077-41.5254A3.5448,3.5448,0,0,0,900.41,86.531a3.5026,3.5026,0,0,0,3.5111-3.5786,3.4456,3.4456,0,0,0-3.5111-3.5111,3.4871,3.4871,0,0,0-3.5111,3.5111m-6.9518,9.1828h-5.7393v19.7162c0,4.5914-2.9034,7.63-7.0222,7.63s-7.0222-2.971-7.0222-7.63V92.1352h-5.7393v19.7162c0,4.5914-2.9709,7.63-7.09,7.63s-7.0222-2.971-7.0222-7.63V92.1352h-5.7393v18.7034c0,9.0478,5.2667,14.2469,12.7615,14.2469a12.1278,12.1278,0,0,0,9.9256-4.9966,12.0385,12.0385,0,0,0,9.9256,4.9966c7.4949,0,12.7615-5.1316,12.7615-14.2469ZM823.3716,83.56v28.899c0,8.035,4.5915,12.0187,13.7068,12.0187h1.8906v-5.5367h-1.8231c-5.5367,0-7.9675-2.2957-7.9675-7.4948V97.6044h9.7906V92.1352h-9.7906V83.56Zm-34.6382,40.9177h5.7392V105.7745c0-5.1991,3.4436-8.6427,8.035-8.6427s7.9675,3.4436,7.9675,8.6427v18.7033h5.7393v-17.623c0-9.79-5.6718-15.3272-13.7068-15.3272s-13.7742,5.5367-13.7742,15.3272Zm-5.4693-14.3144-5.8743-.8778c-.9453,6.4145-4.9965,10.1957-10.3982,10.1957-5.6718,0-10.3308-4.8616-10.3308-11.2761,0-6.482,4.5915-11.276,10.3308-11.276a9.4041,9.4041,0,0,1,7.2247,3.241l-15.7324,8.7778,2.4308,4.3888,21.2016-11.7486c-3.241-6.6171-8.5752-10.1282-15.0572-10.1282a16.0306,16.0306,0,0,0-11.6136,4.9291,17.1124,17.1124,0,0,0,3.376,26.4682,15.7007,15.7007,0,0,0,8.17,2.2957c8.2375,0,14.652-5.6042,16.2725-14.99m-62.5216,14.3144h5.8068V109.5557h6.8871c4.4564,0,6.4145,2.0931,6.4145,6.7521v8.17h5.8068V115.565c0-6.0769-2.3632-9.3854-7.7649-10.3982,1.418-.7427,3.0385-2.4983,4.794-5.3342l4.7265-7.6974h-6.7521L736.5424,98.82c-2.1607,3.5786-3.7812,5.0641-7.4273,5.0641h-2.5658V77.2806h-5.8068Zm-21.9444,0h5.8069v-15.26c0-8.44,3.2409-12.0863,11.276-12.0863h.8777V91.5276h-1.4854c-5.6043,0-9.0479,1.4179-11.141,5.4016v-4.794h-5.3342Zm-13.1666,0h5.8068V110.9061c0-3.9162-.0675-7.2923-1.7555-10.6008a15.9555,15.9555,0,0,0-14.45-8.7777c-9.3179,0-16.205,6.9546-16.205,16.7452a16.5756,16.5756,0,0,0,7.1572,14.0443,15.6331,15.6331,0,0,0,8.71,2.7009,17.4928,17.4928,0,0,0,8.7777-2.2282v-6.2119a13.22,13.22,0,0,1-8.1025,2.9709c-6.1444,0-10.6683-4.659-10.6683-11.4111,0-6.617,4.3888-11.1409,10.3982-11.1409s10.3307,4.4563,10.3307,11.3435Zm-63.2,14.382h5.8068V108.34c0-6.8872,4.3214-11.3435,10.3308-11.3435s10.4657,4.5239,10.4657,11.1409c0,6.7521-4.5239,11.4111-10.6683,11.4111a13.4,13.4,0,0,1-8.17-2.9709V122.79a17.4928,17.4928,0,0,0,8.7777,2.2282,15.5679,15.5679,0,0,0,11.5461-5.1316,17.1208,17.1208,0,0,0,4.3889-11.6136c0-9.7906-6.8872-16.7452-16.2051-16.7452a15.8377,15.8377,0,0,0-14.517,8.7777c-1.62,3.3085-1.7556,6.6846-1.7556,10.6008ZM617.03,110.1634l-5.8744-.8778c-.9453,6.4145-4.9965,10.1957-10.3982,10.1957-5.6718,0-10.3307-4.8616-10.3307-11.2761,0-6.482,4.5914-11.276,10.3307-11.276a9.4041,9.4041,0,0,1,7.2247,3.241L592.25,108.948l2.4308,4.3888,21.2016-11.7486c-3.241-6.6171-8.5752-10.1282-15.0572-10.1282a16.0306,16.0306,0,0,0-11.6136,4.9291,17.1124,17.1124,0,0,0,3.376,26.4682,15.701,15.701,0,0,0,8.17,2.2957c8.2376,0,14.6521-5.6042,16.2726-14.99m-44.4289,14.3144h5.8068V92.1352h-5.8068Zm-.6077-41.5254a3.5448,3.5448,0,0,0,3.5111,3.5786,3.5026,3.5026,0,0,0,3.5111-3.5786,3.4456,3.4456,0,0,0-3.5111-3.5111,3.4871,3.4871,0,0,0-3.5111,3.5111m-6.82,39.6348V110.9061c0-3.9162-.0675-7.2923-1.7556-10.6008a15.9553,15.9553,0,0,0-14.45-8.7777c-9.3179,0-16.205,6.9546-16.205,16.7452a16.5758,16.5758,0,0,0,7.1572,14.0443,15.6336,15.6336,0,0,0,8.71,2.7009,17.4929,17.4929,0,0,0,8.7778-2.2282v-6.2119a13.22,13.22,0,0,1-8.1025,2.9709c-6.1445,0-10.6684-4.659-10.6684-11.4111,0-6.617,4.3889-11.1409,10.3983-11.1409s10.3307,4.4563,10.3307,11.3435v14.7871c0,6.8871-4.1188,10.8709-10.6008,10.8709a30.1675,30.1675,0,0,1-9.0478-1.8231l-1.2829,5.5367a32.5808,32.5808,0,0,0,10.1956,1.8231c10.1282,0,16.5427-6.2794,16.5427-16.9478m-52.461,1.8906H518.52v-15.26c0-8.44,3.241-12.0863,11.276-12.0863h.8778V91.5276h-1.4855c-5.6042,0-9.0478,1.4179-11.141,5.4016v-4.794H512.713Zm-5.8744-14.3144-5.8743-.8778c-.9453,6.4145-4.9966,10.1957-10.3982,10.1957-5.6718,0-10.3308-4.8616-10.3308-11.2761,0-6.482,4.5915-11.276,10.3308-11.276a9.4043,9.4043,0,0,1,7.2247,3.241l-15.7324,8.7778,2.4308,4.3888,21.2016-11.7486C502.45,94.9711,497.1156,91.46,490.6336,91.46A16.03,16.03,0,0,0,479.02,96.3891a17.1124,17.1124,0,0,0,3.376,26.4682,15.701,15.701,0,0,0,8.17,2.2957c8.2375,0,14.652-5.6042,16.2725-14.99m-65.6979,14.3144H446.88V105.7745c0-5.1991,3.4435-8.6427,8.035-8.6427s7.9674,3.4436,7.9674,8.6427v18.7033h5.7393v-17.623c0-9.79-5.6717-15.3272-13.7067-15.3272s-13.7743,5.5367-13.7743,15.3272Zm-6.212-41.5929V77.2806h-1.823c-6.9547,0-12.2889,1.08-15.935,3.3085-7.5624,4.5915-11.6136,11.6137-11.6136,20.2564s4.0512,15.7324,11.6136,20.3238c3.6461,2.2282,8.98,3.3085,15.935,3.3085h1.823v-5.7393c-.81.0676-1.62.0676-2.3632.0676-12.0187,0-18.9734-5.4017-20.5264-15.8675h22.89V97.3344h-22.552c1.9581-9.6555,8.7777-14.5171,20.4589-14.5171.6752,0,1.35,0,2.0931.0676m-67.9233,41.5929h5.8068v-15.26c0-8.44,3.241-12.0863,11.276-12.0863h.8778V91.5276h-1.4855c-5.6042,0-9.0478,1.4179-11.1409,5.4016v-4.794h-5.3342Zm-5.8743-14.3144-5.8744-.8778c-.9453,6.4145-4.9965,10.1957-10.3982,10.1957-5.6718,0-10.3307-4.8616-10.3307-11.2761,0-6.482,4.5914-11.276,10.3307-11.276a9.4041,9.4041,0,0,1,7.2247,3.241l-15.7324,8.7778,2.4308,4.3888,21.2016-11.7486C356.7422,94.9711,351.408,91.46,344.926,91.46a16.0306,16.0306,0,0,0-11.6136,4.9291,17.1124,17.1124,0,0,0,3.376,26.4682,15.701,15.701,0,0,0,8.17,2.2957c8.2376,0,14.6521-5.6042,16.2726-14.99m-64.2125,8.5751v5.7393h.54c6.4145,0,11.4786-1.1478,14.9222-3.1735a23.161,23.161,0,0,0,11.9512-20.4588c0-8.6427-4.0513-15.6649-11.6136-20.2564-3.9162-2.3632-9.1829-3.3085-16.07-3.3085h-8.1026v47.1972h6.212V82.8849c1.0128-.0676,2.0256-.1351,2.9709-.1351,12.6264,0,20.1888,7.1572,20.1888,18.0281,0,10.5333-7.4273,18.0282-19.4461,18.0282-.4726,0-1.0128-.0676-1.5529-.0676"/></g></g></g></svg>